<mxfile host="app.diagrams.net" modified="2024-05-06T10:15:23.071Z" agent="Mozilla/5.0 (Windows NT 10.0; Win64; x64) AppleWebKit/537.36 (KHTML, like Gecko) Chrome/123.0.0.0 Safari/537.36" etag="vG9TN54kt9h1Sxb_SrcD" version="24.3.1" type="github">
  <diagram name="第 1 页" id="Q51gmWEk7vorHwWfxw0Q">
    <mxGraphModel dx="1050" dy="530" grid="1" gridSize="10" guides="1" tooltips="1" connect="1" arrows="1" fold="1" page="1" pageScale="1" pageWidth="827" pageHeight="1169" math="0" shadow="0">
      <root>
        <mxCell id="0" />
        <mxCell id="1" parent="0" />
        <mxCell id="rlnB-wLGCqk-KgBP6jtT-1" value="" style="rounded=1;whiteSpace=wrap;html=1;" vertex="1" parent="1">
          <mxGeometry x="90" y="160" width="220" height="250" as="geometry" />
        </mxCell>
        <mxCell id="rlnB-wLGCqk-KgBP6jtT-2" value="" style="rounded=0;whiteSpace=wrap;html=1;" vertex="1" parent="1">
          <mxGeometry x="110" y="180" width="180" height="120" as="geometry" />
        </mxCell>
        <mxCell id="rlnB-wLGCqk-KgBP6jtT-3" value="&lt;font style=&quot;font-size: 14px;&quot;&gt;智能制造&lt;/font&gt;" style="text;html=1;align=center;verticalAlign=middle;whiteSpace=wrap;rounded=0;" vertex="1" parent="1">
          <mxGeometry x="171" y="180" width="60" height="30" as="geometry" />
        </mxCell>
        <mxCell id="rlnB-wLGCqk-KgBP6jtT-4" value="智能物联" style="rounded=0;whiteSpace=wrap;html=1;" vertex="1" parent="1">
          <mxGeometry x="120" y="215" width="70" height="25" as="geometry" />
        </mxCell>
        <mxCell id="rlnB-wLGCqk-KgBP6jtT-5" value="智能流转" style="rounded=0;whiteSpace=wrap;html=1;" vertex="1" parent="1">
          <mxGeometry x="204" y="215" width="70" height="25" as="geometry" />
        </mxCell>
        <mxCell id="rlnB-wLGCqk-KgBP6jtT-6" value="智慧生产" style="rounded=0;whiteSpace=wrap;html=1;" vertex="1" parent="1">
          <mxGeometry x="120" y="260" width="70" height="25" as="geometry" />
        </mxCell>
        <mxCell id="rlnB-wLGCqk-KgBP6jtT-7" value="视觉+AI" style="rounded=0;whiteSpace=wrap;html=1;" vertex="1" parent="1">
          <mxGeometry x="204" y="260" width="70" height="25" as="geometry" />
        </mxCell>
        <mxCell id="rlnB-wLGCqk-KgBP6jtT-8" value="&lt;font style=&quot;font-size: 14px;&quot;&gt;工业互联网平台&lt;/font&gt;" style="rounded=0;whiteSpace=wrap;html=1;" vertex="1" parent="1">
          <mxGeometry x="111" y="310" width="179" height="40" as="geometry" />
        </mxCell>
        <mxCell id="rlnB-wLGCqk-KgBP6jtT-9" value="&lt;font style=&quot;font-size: 14px;&quot;&gt;工业数字大脑底座&lt;/font&gt;" style="rounded=0;whiteSpace=wrap;html=1;" vertex="1" parent="1">
          <mxGeometry x="110" y="360" width="179" height="40" as="geometry" />
        </mxCell>
        <mxCell id="rlnB-wLGCqk-KgBP6jtT-10" value="&lt;font style=&quot;font-size: 14px;&quot;&gt;设备物联，智能制造&lt;/font&gt;" style="text;html=1;align=center;verticalAlign=middle;resizable=0;points=[];autosize=1;strokeColor=none;fillColor=none;" vertex="1" parent="1">
          <mxGeometry x="115" y="408" width="150" height="30" as="geometry" />
        </mxCell>
        <mxCell id="rlnB-wLGCqk-KgBP6jtT-11" value="" style="rounded=1;whiteSpace=wrap;html=1;" vertex="1" parent="1">
          <mxGeometry x="330" y="110" width="220" height="300" as="geometry" />
        </mxCell>
        <mxCell id="rlnB-wLGCqk-KgBP6jtT-12" value="" style="rounded=0;whiteSpace=wrap;html=1;" vertex="1" parent="1">
          <mxGeometry x="351" y="122" width="180" height="120" as="geometry" />
        </mxCell>
        <mxCell id="rlnB-wLGCqk-KgBP6jtT-13" value="&lt;font style=&quot;font-size: 14px;&quot;&gt;企业数字化治理&lt;/font&gt;" style="text;html=1;align=center;verticalAlign=middle;whiteSpace=wrap;rounded=0;" vertex="1" parent="1">
          <mxGeometry x="390" y="122" width="100" height="30" as="geometry" />
        </mxCell>
        <mxCell id="rlnB-wLGCqk-KgBP6jtT-14" value="孪生工厂" style="rounded=0;whiteSpace=wrap;html=1;" vertex="1" parent="1">
          <mxGeometry x="361" y="157" width="70" height="25" as="geometry" />
        </mxCell>
        <mxCell id="rlnB-wLGCqk-KgBP6jtT-15" value="运营驾驶舱" style="rounded=0;whiteSpace=wrap;html=1;" vertex="1" parent="1">
          <mxGeometry x="445" y="157" width="70" height="25" as="geometry" />
        </mxCell>
        <mxCell id="rlnB-wLGCqk-KgBP6jtT-16" value="全能耗管理" style="rounded=0;whiteSpace=wrap;html=1;" vertex="1" parent="1">
          <mxGeometry x="361" y="202" width="70" height="25" as="geometry" />
        </mxCell>
        <mxCell id="rlnB-wLGCqk-KgBP6jtT-17" value="价值链协同" style="rounded=0;whiteSpace=wrap;html=1;" vertex="1" parent="1">
          <mxGeometry x="445" y="202" width="70" height="25" as="geometry" />
        </mxCell>
        <mxCell id="rlnB-wLGCqk-KgBP6jtT-18" value="&lt;font style=&quot;font-size: 14px;&quot;&gt;工业互联网平台&lt;/font&gt;" style="rounded=0;whiteSpace=wrap;html=1;" vertex="1" parent="1">
          <mxGeometry x="351" y="310" width="179" height="40" as="geometry" />
        </mxCell>
        <mxCell id="rlnB-wLGCqk-KgBP6jtT-19" value="&lt;font style=&quot;font-size: 14px;&quot;&gt;工业数字大脑底座&lt;/font&gt;" style="rounded=0;whiteSpace=wrap;html=1;" vertex="1" parent="1">
          <mxGeometry x="350" y="360" width="179" height="40" as="geometry" />
        </mxCell>
        <mxCell id="rlnB-wLGCqk-KgBP6jtT-20" value="&lt;font style=&quot;font-size: 14px;&quot;&gt;企业治理，赋能精益运营&lt;/font&gt;" style="text;html=1;align=center;verticalAlign=middle;resizable=0;points=[];autosize=1;strokeColor=none;fillColor=none;" vertex="1" parent="1">
          <mxGeometry x="340" y="408" width="180" height="30" as="geometry" />
        </mxCell>
        <mxCell id="rlnB-wLGCqk-KgBP6jtT-30" value="&lt;font style=&quot;font-size: 14px;&quot;&gt;行业赋能，驱动产业升级&lt;/font&gt;" style="text;html=1;align=center;verticalAlign=middle;resizable=0;points=[];autosize=1;strokeColor=none;fillColor=none;" vertex="1" parent="1">
          <mxGeometry x="584" y="408" width="180" height="30" as="geometry" />
        </mxCell>
        <mxCell id="rlnB-wLGCqk-KgBP6jtT-31" value="&lt;font style=&quot;font-size: 14px;&quot;&gt;设备物联应用&lt;/font&gt;" style="rounded=0;whiteSpace=wrap;html=1;" vertex="1" parent="1">
          <mxGeometry x="351.5" y="259" width="179" height="40" as="geometry" />
        </mxCell>
        <mxCell id="rlnB-wLGCqk-KgBP6jtT-32" value="" style="rounded=1;whiteSpace=wrap;html=1;" vertex="1" parent="1">
          <mxGeometry x="570" y="50" width="220" height="358" as="geometry" />
        </mxCell>
        <mxCell id="rlnB-wLGCqk-KgBP6jtT-33" value="" style="rounded=0;whiteSpace=wrap;html=1;" vertex="1" parent="1">
          <mxGeometry x="591.5" y="66" width="180" height="120" as="geometry" />
        </mxCell>
        <mxCell id="rlnB-wLGCqk-KgBP6jtT-34" value="&lt;font style=&quot;font-size: 14px;&quot;&gt;行业数字化治理&lt;/font&gt;" style="text;html=1;align=center;verticalAlign=middle;whiteSpace=wrap;rounded=0;" vertex="1" parent="1">
          <mxGeometry x="630.5" y="66" width="100" height="30" as="geometry" />
        </mxCell>
        <mxCell id="rlnB-wLGCqk-KgBP6jtT-35" value="智慧工厂" style="rounded=0;whiteSpace=wrap;html=1;" vertex="1" parent="1">
          <mxGeometry x="601.5" y="101" width="70" height="25" as="geometry" />
        </mxCell>
        <mxCell id="rlnB-wLGCqk-KgBP6jtT-36" value="智慧锻造" style="rounded=0;whiteSpace=wrap;html=1;" vertex="1" parent="1">
          <mxGeometry x="685.5" y="101" width="70" height="25" as="geometry" />
        </mxCell>
        <mxCell id="rlnB-wLGCqk-KgBP6jtT-37" value="智慧加工" style="rounded=0;whiteSpace=wrap;html=1;" vertex="1" parent="1">
          <mxGeometry x="601.5" y="146" width="70" height="25" as="geometry" />
        </mxCell>
        <mxCell id="rlnB-wLGCqk-KgBP6jtT-38" value="APP" style="rounded=0;whiteSpace=wrap;html=1;" vertex="1" parent="1">
          <mxGeometry x="685.5" y="146" width="70" height="25" as="geometry" />
        </mxCell>
        <mxCell id="rlnB-wLGCqk-KgBP6jtT-39" value="&lt;font style=&quot;font-size: 14px;&quot;&gt;工业互联网平台&lt;/font&gt;" style="rounded=0;whiteSpace=wrap;html=1;" vertex="1" parent="1">
          <mxGeometry x="591" y="308" width="179" height="40" as="geometry" />
        </mxCell>
        <mxCell id="rlnB-wLGCqk-KgBP6jtT-40" value="&lt;font style=&quot;font-size: 14px;&quot;&gt;工业数字大脑底座&lt;/font&gt;" style="rounded=0;whiteSpace=wrap;html=1;" vertex="1" parent="1">
          <mxGeometry x="590" y="358" width="179" height="40" as="geometry" />
        </mxCell>
        <mxCell id="rlnB-wLGCqk-KgBP6jtT-41" value="&lt;font style=&quot;font-size: 14px;&quot;&gt;设备物联应用&lt;/font&gt;" style="rounded=0;whiteSpace=wrap;html=1;" vertex="1" parent="1">
          <mxGeometry x="591.5" y="257" width="179" height="40" as="geometry" />
        </mxCell>
        <mxCell id="rlnB-wLGCqk-KgBP6jtT-42" value="&lt;font style=&quot;font-size: 14px;&quot;&gt;企业间数字化协同&lt;/font&gt;" style="rounded=0;whiteSpace=wrap;html=1;" vertex="1" parent="1">
          <mxGeometry x="590.5" y="202" width="179" height="40" as="geometry" />
        </mxCell>
        <mxCell id="rlnB-wLGCqk-KgBP6jtT-43" value="&lt;font style=&quot;font-size: 14px;&quot;&gt;车间级&lt;/font&gt;" style="text;html=1;align=center;verticalAlign=middle;resizable=0;points=[];autosize=1;strokeColor=none;fillColor=none;" vertex="1" parent="1">
          <mxGeometry x="161" y="126" width="70" height="30" as="geometry" />
        </mxCell>
        <mxCell id="rlnB-wLGCqk-KgBP6jtT-44" value="&lt;font style=&quot;font-size: 14px;&quot;&gt;企业级&lt;/font&gt;" style="text;html=1;align=center;verticalAlign=middle;resizable=0;points=[];autosize=1;strokeColor=none;fillColor=none;" vertex="1" parent="1">
          <mxGeometry x="404.5" y="80" width="70" height="30" as="geometry" />
        </mxCell>
        <mxCell id="rlnB-wLGCqk-KgBP6jtT-45" value="&lt;font style=&quot;font-size: 14px;&quot;&gt;产业级&lt;/font&gt;" style="text;html=1;align=center;verticalAlign=middle;resizable=0;points=[];autosize=1;strokeColor=none;fillColor=none;" vertex="1" parent="1">
          <mxGeometry x="646.5" y="20" width="70" height="30" as="geometry" />
        </mxCell>
      </root>
    </mxGraphModel>
  </diagram>
</mxfile>
